# xmcd CD database file
#
# Track frame offsets:
#	150
#	21695
#	46535
#	63492
#	90475
#	104307
#	125920
#	144942
#	166542
#	186217
#
# Disc length: 2727 seconds
#
# Revision: 0
# Processed by: cddbd v1.5.1PL2 Copyright (c) Steve Scherf et al.
# Submitted via: CDex 1.51
#
DISCID=800aa50a
DTITLE=eastern youth - 365歩のブルース
DYEAR=2006
DGENRE=Rock
TTITLE0=荒野に針路を取れ
TTITLE1=片道切符の歌
TTITLE2=ひとり道、風の道
TTITLE3=希望の丘
TTITLE4=非力なる者
TTITLE5=夏の光
TTITLE6=小羊と月明かり
TTITLE7=赤い背中
TTITLE8=瓦の屋根に雪が降る
TTITLE9=365歩のブルース
EXTD=YEAR: 2006
EXTT0=
EXTT1=
EXTT2=
EXTT3=
EXTT4=
EXTT5=
EXTT6=
EXTT7=
EXTT8=
EXTT9=
PLAYORDER=
